<?xml version="1.0" standalone="no"?>
<!DOCTYPE svg PUBLIC "-//W3C//DTD SVG 20010904//EN"
 "http://www.w3.org/TR/2001/REC-SVG-20010904/DTD/svg10.dtd">
<svg version="1.0" xmlns="http://www.w3.org/2000/svg"
 width="255.000000pt" height="283.000000pt" viewBox="0 0 255.000000 283.000000"
 preserveAspectRatio="xMidYMid meet">

<g transform="translate(0.000000,283.000000) scale(0.100000,-0.100000)"
fill="#000000" stroke="none">
<path d="M1565 2666 l-30 -13 52 -17 c29 -10 55 -21 57 -24 2 -4 -1 -36 -6
-70 -5 -35 -7 -66 -4 -69 3 -3 24 1 48 8 l43 14 11 72 11 73 -54 20 c-62 23
-86 24 -128 6z"/>
<path d="M946 2374 c-236 -57 -431 -106 -433 -107 -2 -2 102 -47 229 -100
l233 -97 198 54 c108 29 200 55 202 58 3 3 4 71 3 150 l-3 145 -429 -103z"/>
<path d="M1730 2405 c0 -3 13 -17 29 -31 l29 -24 -25 -45 -25 -45 39 0 c36 0
41 3 60 44 l22 44 -32 25 c-31 23 -97 45 -97 32z"/>
<path d="M1533 2253 c-12 -2 -27 -11 -33 -19 -10 -12 -7 -14 18 -14 26 0 31
-5 37 -30 8 -38 18 -44 38 -22 14 15 15 24 5 55 -11 37 -17 39 -65 30z"/>
<path d="M1825 2140 c-110 -26 -302 -72 -427 -101 l-228 -52 0 -169 c0 -92 2
-168 4 -168 5 0 538 146 569 156 18 6 19 -4 15 -214 -1 -121 -7 -224 -11 -228
-4 -4 -135 -40 -290 -79 l-282 -72 -3 -162 -2 -162 22 6 c13 4 203 59 423 123
l400 117 6 190 c15 448 21 865 13 864 -5 -1 -99 -23 -209 -49z"/>
<path d="M142 398 c-7 -7 -12 -39 -12 -75 0 -77 8 -83 119 -83 80 0 81 0 81
-25 l0 -25 -100 0 -100 0 0 -30 0 -30 113 0 c134 0 147 7 147 84 0 81 -6 86
-115 86 -95 0 -95 0 -95 25 l0 25 105 0 105 0 0 30 0 30 -118 0 c-78 0 -122
-4 -130 -12z"/>
<path d="M567 403 c-11 -10 -8 -233 3 -254 10 -17 22 -19 120 -19 l110 0 0 30
0 30 -90 0 c-89 0 -90 0 -90 25 0 25 1 25 85 25 l85 0 0 30 0 30 -85 0 c-84 0
-85 0 -85 25 0 25 1 25 90 25 l90 0 0 30 0 30 -113 0 c-63 0 -117 -3 -120 -7z"/>
<path d="M980 282 c0 -86 4 -132 12 -140 8 -8 50 -12 125 -12 l113 0 0 130 0
130 -26 10 c-14 6 -70 10 -125 10 l-99 0 0 -128z m190 -12 l0 -80 -70 0 -70 0
0 80 0 80 70 0 70 0 0 -80z"/>
<path d="M1430 390 c-18 -18 -20 -32 -20 -140 l0 -120 30 0 30 0 0 110 0 110
66 0 65 0 -3 28 c-3 26 -5 27 -75 30 -62 2 -75 0 -93 -18z"/>
<path d="M1760 282 c0 -86 4 -132 12 -140 8 -8 49 -12 121 -12 l108 0 -3 27
c-3 28 -3 28 -90 31 -86 3 -88 3 -88 27 0 23 3 24 83 27 81 3 82 3 85 31 l3
27 -85 0 c-85 0 -86 0 -86 25 0 25 1 25 91 25 l90 0 -3 28 -3 27 -117 3 -118
3 0 -129z"/>
<path d="M2170 271 l0 -141 114 0 c93 0 116 3 127 17 10 11 14 49 14 137 l0
121 -27 3 -28 3 0 -110 0 -111 -70 0 -69 0 -3 108 -3 107 -27 3 -28 3 0 -140z"/>
</g>
</svg>
