<?xml version="1.0" standalone="no"?>
<!DOCTYPE svg PUBLIC "-//W3C//DTD SVG 20010904//EN"
 "http://www.w3.org/TR/2001/REC-SVG-20010904/DTD/svg10.dtd">
<svg version="1.0" xmlns="http://www.w3.org/2000/svg"
 width="683.000000pt" height="683.000000pt" viewBox="0 0 683.000000 683.000000"
 preserveAspectRatio="xMidYMid meet">

<g transform="translate(0.000000,683.000000) scale(0.100000,-0.100000)"
fill="#000000" stroke="none">
<path d="M3205 6790 c-459 -26 -874 -136 -1290 -340 -350 -172 -621 -365 -895
-640 -395 -394 -678 -861 -838 -1385 -190 -618 -195 -1289 -17 -1911 295
-1028 1077 -1862 2087 -2227 340 -123 661 -183 1043 -194 1119 -33 2169 490
2825 1407 321 448 515 945 596 1530 25 179 25 653 0 835 -105 762 -431 1423
-965 1955 -675 672 -1596 1023 -2546 970z m390 -291 c762 -51 1446 -360 1980
-894 467 -466 759 -1047 866 -1720 26 -169 37 -539 20 -721 -74 -786 -439
-1506 -1025 -2020 -739 -649 -1704 -905 -2666 -708 -257 53 -470 128 -735 259
-606 300 -1074 766 -1379 1372 -160 318 -254 629 -308 1023 -17 125 -17 573 0
700 53 391 146 699 308 1023 515 1027 1552 1676 2714 1695 41 1 142 -3 225 -9z"/>
<path d="M3963 6126 c-40 -12 -76 -26 -81 -31 -12 -13 -34 -267 -24 -276 4 -4
53 -23 110 -44 l102 -37 78 17 c42 10 84 22 93 26 22 11 56 267 37 285 -16 16
-204 84 -227 83 -9 -1 -48 -11 -88 -23z"/>
<path d="M2750 5538 c-443 -109 -823 -205 -845 -211 l-40 -12 -3 -311 -2 -310
37 -18 c29 -14 881 -399 1198 -541 28 -12 63 -21 80 -19 17 2 286 73 599 159
313 85 572 153 575 149 3 -3 5 -207 3 -452 -2 -339 -6 -449 -15 -454 -7 -4
-151 -40 -322 -79 -170 -40 -429 -100 -575 -134 l-265 -62 -5 -189 -5 -189 -5
190 -5 189 -630 263 c-346 145 -638 265 -647 269 -17 5 -18 -6 -18 -133 0 -76
3 -215 7 -310 l6 -171 634 -286 c588 -264 637 -285 681 -281 26 2 410 103 855
224 444 122 810 221 812 221 3 0 5 478 5 1061 l0 1062 -27 -6 c-16 -4 -212
-49 -438 -102 -225 -52 -588 -136 -805 -186 -217 -50 -404 -97 -416 -104 -17
-11 -22 -11 -30 0 -5 8 -87 46 -182 86 -101 42 -168 75 -160 79 13 7 62 20
528 144 l235 62 6 70 c4 38 7 174 8 302 1 180 -2 232 -11 231 -7 0 -375 -91
-818 -201z m407 -1330 c-3 -8 -6 -5 -6 6 -1 11 2 17 5 13 3 -3 4 -12 1 -19z"/>
<path d="M4230 5536 c-48 -106 -48 -107 9 -156 51 -42 97 -59 159 -60 32 0 35
3 73 84 21 46 39 86 39 89 0 2 -30 28 -66 56 -63 48 -70 51 -126 51 l-59 0
-29 -64z"/>
<path d="M3845 5294 c-43 -22 -65 -44 -65 -65 0 -17 45 -129 52 -129 52 1 126
24 150 47 34 32 34 36 7 107 l-22 56 -46 0 c-25 0 -59 -7 -76 -16z"/>
<path d="M1425 2307 c-66 -22 -158 -73 -187 -104 -38 -40 -58 -94 -58 -157 0
-71 12 -102 61 -152 37 -38 72 -57 241 -133 69 -30 89 -57 74 -97 -8 -21 -68
-14 -153 17 -92 33 -113 35 -119 11 -4 -15 -13 -19 -36 -18 -28 1 -31 -3 -54
-63 -34 -89 -32 -95 27 -121 86 -36 183 -52 294 -48 94 4 106 7 195 50 87 40
150 91 150 119 0 5 5 9 10 9 6 0 10 -25 10 -55 0 -46 4 -60 25 -80 l24 -25
289 0 c248 0 291 2 296 15 3 9 18 15 35 15 29 0 41 14 41 51 0 16 9 12 59 -25
123 -90 292 -102 453 -31 48 21 108 57 135 80 48 42 113 146 113 179 0 10 5
14 10 11 6 -4 10 -65 10 -151 l0 -144 120 0 c92 0 121 3 127 14 4 8 22 16 38
18 l30 3 3 103 c1 56 7 102 12 102 6 0 37 -54 70 -120 l60 -120 129 0 c105 0
130 3 135 15 7 19 55 19 80 0 29 -22 581 -22 593 -1 4 8 22 16 38 18 28 3 30
6 33 51 l3 48 44 -49 c65 -72 123 -94 261 -100 121 -5 184 8 279 55 85 43 115
72 149 142 l31 66 3 258 c4 269 2 295 -24 321 -22 23 -222 23 -230 1 -4 -8
-14 -15 -24 -15 -51 0 -50 8 -50 -295 0 -280 -7 -345 -34 -345 -7 0 -27 5 -45
11 -58 20 -61 38 -61 344 0 260 -1 276 -20 295 -19 19 -36 19 -485 20 -447 0
-466 -1 -502 -20 -21 -11 -43 -20 -49 -20 -6 0 -17 -7 -24 -15 -11 -13 -16
-12 -42 6 -60 43 -106 49 -372 48 l-251 0 -49 -27 c-41 -23 -54 -35 -73 -71
-1 -1 -14 9 -30 24 -15 15 -57 41 -93 59 -61 29 -71 31 -180 31 l-115 0 -97
-47 c-53 -25 -114 -63 -136 -83 l-41 -37 -3 74 -3 73 -330 3 c-312 2 -332 2
-370 -17 l-40 -20 -70 26 c-57 21 -91 27 -185 29 -78 3 -128 0 -155 -9z m263
-77 c34 -12 62 -25 62 -29 0 -15 -32 -101 -39 -105 -4 -3 -33 4 -66 15 -100
33 -211 20 -229 -26 -26 -67 12 -109 146 -164 181 -73 235 -133 226 -251 -6
-84 -39 -129 -124 -171 -64 -32 -73 -33 -178 -33 -108 0 -174 12 -263 49 l-32
14 20 60 c12 34 23 61 27 61 3 0 40 -12 81 -27 104 -37 198 -38 235 -4 19 18
26 34 26 64 0 54 -35 84 -155 131 -161 64 -225 130 -225 231 0 93 47 160 136
196 69 27 260 22 352 -11z m1383 -3 c74 -36 125 -88 163 -167 30 -63 31 -69
31 -200 0 -133 -1 -137 -33 -202 -39 -80 -101 -138 -181 -170 -45 -17 -76 -22
-156 -22 -89 0 -107 3 -163 28 -82 38 -150 111 -183 198 -33 87 -33 254 -1
338 42 108 110 174 215 212 81 29 234 22 308 -15z m-591 -52 l0 -65 -185 0
-185 0 0 -90 0 -90 185 0 186 0 -3 -62 -3 -63 -183 -3 -183 -2 3 -93 3 -92
188 -3 187 -2 0 -65 0 -65 -270 0 -271 0 -24 25 -25 24 0 311 0 310 -33 0
c-38 0 -57 15 -57 45 0 44 7 45 347 45 l323 0 0 -65z m1393 51 c95 -34 147
-107 155 -218 6 -88 -11 -147 -59 -202 l-39 -44 70 -134 c39 -74 70 -138 70
-142 0 -4 -51 -5 -112 -4 l-113 3 -60 117 -60 118 -62 0 -62 0 -3 -117 -3
-118 -102 -3 -103 -3 0 336 0 335 -33 0 c-38 0 -57 15 -57 45 0 43 11 45 280
45 187 -1 265 -4 293 -14z m862 -51 l0 -60 -187 -3 -188 -2 0 -90 0 -90 185 0
185 0 0 -65 0 -65 -185 0 -185 0 0 -83 c0 -51 5 -88 12 -95 8 -8 66 -12 195
-12 l183 0 0 -65 0 -65 -274 0 c-255 0 -275 1 -297 19 l-24 19 -3 316 -3 315
-37 3 c-34 3 -37 6 -40 37 -2 20 2 37 10 42 7 5 157 8 333 6 l319 -2 1 -60z
m305 -225 c5 -310 9 -330 64 -360 39 -20 112 -17 144 7 50 37 52 47 52 356 l0
288 103 -3 102 -3 0 -290 0 -290 -30 -54 c-56 -102 -126 -134 -295 -135 -131
-1 -192 14 -253 65 -79 65 -98 155 -96 454 1 148 0 160 -18 163 -58 9 -63 12
-63 40 0 49 13 53 155 50 l130 -3 5 -285z m-3172 170 c9 0 12 -37 12 -150 0
-82 -4 -150 -8 -150 -4 0 -15 13 -24 28 -24 41 -79 75 -203 130 -112 49 -154
84 -141 118 8 20 64 15 153 -15 59 -20 83 -15 83 15 0 10 8 12 30 8 22 -5 31
-2 36 11 5 11 14 15 28 11 11 -3 27 -6 34 -6z m692 -5 c0 -2 -9 -24 -19 -47
-11 -24 -22 -51 -25 -60 -5 -16 -21 -18 -161 -18 l-155 0 0 50 0 50 145 0
c120 0 147 3 151 15 5 13 64 23 64 10z m808 -34 c2 -18 -1 -38 -7 -44 -8 -8
-11 -6 -11 6 0 10 -7 32 -16 48 -15 30 -15 30 8 27 18 -2 24 -10 26 -37z m762
14 c0 -14 -2 -25 -4 -25 -2 0 -6 11 -8 25 -3 14 -1 25 3 25 5 0 9 -11 9 -25z
m680 -40 l0 -65 -175 0 -175 0 0 50 0 50 145 0 c120 0 147 3 151 15 4 8 17 15
30 15 23 0 24 -3 24 -65z m-682 -355 l-3 -91 -48 91 -49 90 31 35 c16 19 38
57 48 85 l18 51 3 -85 c1 -47 1 -126 0 -176z m682 78 c0 -18 3 -50 6 -70 l7
-38 -182 0 -181 0 0 55 0 55 144 0 c119 0 145 3 150 15 3 8 17 15 31 15 22 0
25 -4 25 -32z m-2285 -89 c6 -18 -2 -19 -160 -19 l-166 0 3 53 3 52 145 5 145
5 12 -39 c7 -21 15 -47 18 -57z"/>
<path d="M2860 2129 c-45 -10 -93 -65 -111 -127 -8 -27 -14 -92 -14 -153 1
-95 3 -111 29 -163 37 -75 73 -98 144 -93 43 3 59 10 87 37 59 57 85 183 66
309 -23 149 -92 215 -201 190z m115 -50 c50 -45 68 -113 63 -243 -3 -79 -9
-110 -26 -143 -20 -38 -27 -43 -56 -43 -38 0 -74 29 -103 81 -15 28 -18 56
-18 164 0 116 2 135 23 173 29 54 64 57 117 11z"/>
<path d="M3600 1985 l0 -135 68 0 c107 0 154 38 155 127 2 98 -48 141 -165
142 l-58 1 0 -135z m153 94 c30 -14 47 -48 47 -95 0 -58 -14 -74 -65 -74 l-45
0 0 90 c0 83 2 90 20 90 10 0 30 -5 43 -11z"/>
</g>
</svg>
